<svg id="Layer_1" data-name="Layer 1" xmlns="http://www.w3.org/2000/svg" viewBox="0 0 503.09 494.72"><defs><style>.cls-1{fill:#efbe55;stroke:#000;stroke-miterlimit:10;stroke-width:4px;}</style></defs><title>stadium</title><path class="cls-1" d="M682.51,330.34c47.57.62,97.84,5.42,146.75,20.12,21.15,6.36,41.61,14.39,59.21,28.21,7.8,6.12,14.56,13.17,18,22.83a28.7,28.7,0,0,1,.59,18.63c-14.66,47.77-29.44,95.5-44,143.29-5.83,19.12-19.6,30-36.9,38.22-26.22,12.46-54,18.85-82.44,23.08A451.49,451.49,0,0,1,643.14,628a411.49,411.49,0,0,1-94.8-18.8c-9.06-2.9-17.44-7.44-25.83-11.92-16.06-8.55-24.23-23.08-29.36-39.46-13-41.64-25.61-83.44-38.32-125.18-1.79-5.87-5.41-11-6-17.41-1.22-14.06,5.62-24.31,15.44-33.06,11.32-10.1,24.54-17.1,38.51-22.84,28.55-11.74,58.45-18.26,88.84-22.76C620.67,332.23,649.91,330.5,682.51,330.34Zm-59.19,244.3q0,11.49,0,23c0,10.88.61,11.63,11.3,13.44,1,.17,2,.21,3,.33,19.23,2.41,38.57,2.31,57.87,1.68,10.59-.34,21.32-.35,31.7-3.37,3.94-1.15,5.77-3.15,5.74-7.43-.14-18.16,0-36.32-.05-54.48,0-8.3-3.52-11.11-11.73-9.59a220.69,220.69,0,0,1-30.23,3.44,255.94,255.94,0,0,1-56.7-3.61c-7.22-1.3-10.81,1.82-10.85,9.1C623.29,556.32,623.33,565.48,623.32,574.64Zm59.35-188.29c5.3.12,14.12,0,22.95.49q25.7,1.43,51.18,4.85c1.66.22,2.94.06,3.82-1.51q7.54-13.53,15.1-27.06c1.07-1.92.74-3.13-1.68-3.4-1.32-.15-2.6-.57-3.92-.78-28.33-4.55-56.89-6.34-85.53-7-17.49-.4-35,.7-52.4,1.85-16.28,1.07-32.46,3.12-48.57,5.68-3.49.55-3.72,1.59-2.09,4.4q7,12.11,13.68,24.41c1.44,2.64,2.95,3.73,6.29,3.27A536.64,536.64,0,0,1,682.67,386.35Zm204.16,25.39a14.86,14.86,0,0,0-3.85-8.68,65,65,0,0,0-16.07-13.34c-23.11-13.58-48.46-20.91-74.42-26.52-2.54-.55-4,.22-5.26,2.46-4.49,8.17-9,16.33-13.74,24.35-2.08,3.51-.78,4.52,2.61,5.16,6.37,1.21,12.75,2.44,19,4.06,22.8,5.88,45.07,13,64.64,26.81,3,2.14,4.89,7.57,9.42,5.89,3.73-1.39,6.85-4.64,9.95-7.39a40.51,40.51,0,0,0,5.45-6.47A10.82,10.82,0,0,0,886.82,411.74Zm-416.63.42a17,17,0,0,0,1.06,3.93c3.6,6.87,9.52,11.45,15.85,15.56,2,1.29,3.49,0,4.89-1.18,14.75-12.93,32.52-19.91,50.81-25.89a344.56,344.56,0,0,1,38.7-9.77c1.7-.34,4.48,0,2.51-3.48-4.89-8.52-9.63-17.12-14.35-25.74-1.5-2.73-3.52-2.86-6.3-2.26a303.7,303.7,0,0,0-51.57,15.54c-11.89,4.89-23.45,10.46-33.09,19.23C474.64,401.81,470.73,405.75,470.19,412.16Zm208.4,59c10.84.58,22.13-.43,33.44-.83,2.11-.08,3.92-.45,5.06-2.49q7.89-14.19,15.85-28.35c1.46-2.62.34-3.58-2.32-3.81-3.48-.3-6.94-.81-10.41-1.17A409.1,409.1,0,0,0,626,435.69c-3.38.43-3.47,1.58-2,4.11,5.1,9,10.17,18,15.14,27,1.36,2.48,3.19,3.44,6,3.55C656.13,470.79,667.1,471.68,678.59,471.2Zm-.15-49.94a320.39,320.39,0,0,1,57.22,3.85c3.31.53,5.69,0,7.36-3.4,2.51-5.07,5.39-10,8.27-14.83,1.9-3.22.74-4.56-2.55-5-16.69-2-33.44-3.58-50.23-4-19.31-.51-38.64-.58-57.92.92-10.94.85-21.86,2.07-32.78,3.18-2.72.28-4.52,1-2.43,4.38,3.06,5,5.88,10.07,8.5,15.28,1.65,3.29,4,4,7.37,3.48A314.26,314.26,0,0,1,678.44,421.26ZM540.07,454.11c1.91.45,3.19-.61,4.46-1.75,4.76-4.26,10.26-7.36,15.94-10.21,11.84-6,24.44-9.66,37.28-12.69,6.73-1.59,6.74-1.58,3.55-7.36-2.5-4.52-5.15-9-7.53-13.54-1.52-2.92-3.34-4.1-6.79-3.23-5.64,1.42-11.44,2.21-17.11,3.53-21.82,5.09-43.1,11.66-62.25,23.74-2.62,1.65-6.84,3.14-6.78,6s4.63,3.07,7.25,4.24A201.44,201.44,0,0,0,540.07,454.11Zm315.85-16a10.22,10.22,0,0,0-1.52-1.68,91.93,91.93,0,0,0-7.76-5.44c-24.1-14.1-50.67-20.8-77.79-25.88-2.58-.48-4,.5-5.22,2.69-2.52,4.69-5.15,9.34-7.81,14-3.54,6.14-3.55,6,3.19,7.68,19.47,4.85,38.68,10.34,54.41,23.76a3.55,3.55,0,0,0,3.23,1,203.82,203.82,0,0,0,37.89-14A2,2,0,0,0,855.92,438.09Zm-300.4,20.07A461,461,0,0,0,627,469.06a14.38,14.38,0,0,0-.64-2c-3.29-6-6.49-12-9.92-17.9-7.46-12.78-3.58-11.59-19.08-7.92C583.06,444.56,569,448.85,555.52,458.16Zm245.72-.06c-1.38-1.05-2-1.61-2.67-2-15.05-9-31.71-13.51-48.67-17.14a4.18,4.18,0,0,0-5,2.3c-4.58,8.29-9.24,16.54-13.86,24.82-.47.84-1.26,1.81-.43,2.7s1.88.26,2.85.16c5.12-.55,10.24-1,15.35-1.63A426.91,426.91,0,0,0,801.24,458.1Z" transform="translate(-431.46 -136.64)"/><path class="cls-1" d="M638.09,139.41c4.33.11,7.47,3.24,8.15,8.58,1.76,13.85,3.41,27.71,5.09,41.57,1.5,12.37,2.93,24.75,4.5,37.11.8,6.3-1.72,10.69-6.75,11.32-4.85.61-8.53-2.6-9.31-8.74q-5-39.31-9.74-78.66C629.18,143.6,632.58,139.27,638.09,139.41Z" transform="translate(-431.46 -136.64)"/><path class="cls-1" d="M837.44,220.27c-5.87-.14-9.35-6.25-6.6-12.11,1.9-4.06,4.33-7.88,6.6-11.76q14-23.94,28-47.85c.93-1.58,1.84-3.18,2.89-4.67,3.32-4.69,7.44-5.76,11.54-3.09,4,2.57,4.85,7.09,2.21,11.9-1.93,3.5-4.06,6.89-6.08,10.34Q861,188.66,846,214.33C844,217.7,841.63,220.22,837.44,220.27Z" transform="translate(-431.46 -136.64)"/><path class="cls-1" d="M535.48,247.63c-.13,4.67-2,7.14-5.6,8.29-4.13,1.32-7.22-.39-9.44-3.72-5-7.49-9.86-15-14.72-22.61Q495.6,213.81,485.55,198c-2.07-3.24-2.38-6.6,0-9.81,2.1-2.88,5.14-3.48,8.49-2.83a7.83,7.83,0,0,1,5.08,3.77q17.51,27.06,35,54.15A8.26,8.26,0,0,1,535.48,247.63Z" transform="translate(-431.46 -136.64)"/><path class="cls-1" d="M592.17,256.41a8.92,8.92,0,0,1-8-6.19q-9.91-26.65-19.56-53.4c-1.91-5.33,0-9.68,4.23-11.25,4.54-1.67,8.93.44,11,5.85q10,26.61,19.67,53.35C601.59,250.71,598,256.21,592.17,256.41Z" transform="translate(-431.46 -136.64)"/><path class="cls-1" d="M924.74,230.46c3,.35,5.64,1.68,7,4.69a7.87,7.87,0,0,1-1.52,9.24c-4.88,5-9.84,9.92-14.78,14.85-7.77,7.76-15.49,15.56-23.34,23.23-4.1,4-8.34,4.17-11.94.85s-3.95-7.52-.48-11.05c13.05-13.29,26.31-26.38,39.52-39.51A8.15,8.15,0,0,1,924.74,230.46Z" transform="translate(-431.46 -136.64)"/><path class="cls-1" d="M750.4,278.68c-5.53-.12-9.64-5-8-10q8.2-25.63,17.09-51a7.38,7.38,0,0,1,9.71-4.66c4.44,1.53,6.8,5.68,5.3,10.29-5.35,16.43-10.86,32.8-16.35,49.18C756.83,276.33,754.15,278.51,750.4,278.68Z" transform="translate(-431.46 -136.64)"/><path class="cls-1" d="M778.45,196.77c-5.52.11-9.28-3.81-8.95-8.65a15.8,15.8,0,0,1,.85-3.88c4.23-12.6,8.43-25.2,12.78-37.75,2-5.75,5.91-8.11,10.43-6.72,4.78,1.47,6.78,5.95,4.92,11.75q-6.08,19-12.43,37.87C784.73,193.39,782.41,196.49,778.45,196.77Z" transform="translate(-431.46 -136.64)"/><path class="cls-1" d="M441.56,227.76a9.72,9.72,0,0,1,6.71,3.24c8.61,9,17.3,17.91,25.86,27,3.76,4,3.77,8.59.37,12s-8.15,3.42-11.95-.44c-9-9.12-17.76-18.39-26.54-27.68-2.62-2.77-3.37-6.09-1.57-9.64A8.09,8.09,0,0,1,441.56,227.76Z" transform="translate(-431.46 -136.64)"/><path class="cls-1" d="M720.36,210.87c-1.23,9.75-2.54,21.32-4.2,32.84a8.06,8.06,0,0,1-8.93,7,8,8,0,0,1-7.13-8.77q1.8-17.87,4.36-35.65c.73-5.07,4.76-8.08,9-7.59C718,199.17,720.52,202.91,720.36,210.87Z" transform="translate(-431.46 -136.64)"/><path class="cls-1" d="M449.08,364.86A13.72,13.72,0,0,1,435,351.16,14,14,0,0,1,449.25,337a14.18,14.18,0,0,1,14,14C463.24,358.44,456.64,364.88,449.08,364.86Z" transform="translate(-431.46 -136.64)"/><path class="cls-1" d="M899.15,364.83c-8,.06-14.09-5.76-14.25-13.62A14.09,14.09,0,0,1,898.7,337a14.33,14.33,0,0,1,14.37,13.75C913.26,358.18,906.74,364.78,899.15,364.83Z" transform="translate(-431.46 -136.64)"/><path class="cls-1" d="M480.42,161.12c-.24,5-1.91,7.64-5.4,9s-6.87.51-9-2.43a190.37,190.37,0,0,1-10.65-16.84c-1.77-3.16-1-6.54,1.79-9.08,2.55-2.33,5.83-3.51,8.66-1.37C473.24,145.93,476.67,154.29,480.42,161.12Z" transform="translate(-431.46 -136.64)"/><path class="cls-1" d="M550.4,292.55a7.74,7.74,0,0,1-5.81-3.14c-3.26-4.83-6.58-9.63-9.45-14.69a8,8,0,0,1,13.35-8.91A125.19,125.19,0,0,1,558,281C560.79,286.4,556.47,292.71,550.4,292.55Z" transform="translate(-431.46 -136.64)"/><path class="cls-1" d="M710,159.39c.49-3.73,1-8.71,1.86-13.62s4.65-7.61,8.75-7.07a8.66,8.66,0,0,1,7.35,9.68c-.5,4.63-1,9.26-1.72,13.87-.77,5.24-4.59,8.75-8.89,8.37C712.46,170.2,709.7,166.46,710,159.39Z" transform="translate(-431.46 -136.64)"/><path class="cls-1" d="M863.75,345.74a11.93,11.93,0,0,1-11.29-12.18,11.84,11.84,0,0,1,23.65,1.09A11.8,11.8,0,0,1,863.75,345.74Z" transform="translate(-431.46 -136.64)"/><path class="cls-1" d="M483.51,322.28a11.36,11.36,0,0,1,11.9,11.47,11.48,11.48,0,0,1-11.42,12,11.89,11.89,0,0,1-12-11.55A11.58,11.58,0,0,1,483.51,322.28Z" transform="translate(-431.46 -136.64)"/><path class="cls-1" d="M662,277.06c-.1,4.33-3.46,8.28-7.6,8.49-4.39.22-7.46-2.06-8.38-6.27A92.15,92.15,0,0,1,644.1,265a7.94,7.94,0,0,1,7.23-8.63c4.41-.51,7.84,2.07,8.87,6.87.52,2.43.79,4.91,1.12,7.38C661.59,272.77,661.78,274.91,662,277.06Z" transform="translate(-431.46 -136.64)"/><path class="cls-1" d="M826.42,246.21c-1.92,5.5-4.35,11.32-9.73,15.15-2.93,2.08-6.11,1.26-8.74-1s-3.74-5.18-2.48-8.52a41.19,41.19,0,0,1,6.72-11.6,7.19,7.19,0,0,1,8.57-2.24C824.29,239.3,825.91,242,826.42,246.21Z" transform="translate(-431.46 -136.64)"/><path class="cls-1" d="M559.11,167.7c-5.84-.37-7.39-4.92-8.93-9.35-1.66-4.77-4.53-9.71.24-14.31A7.83,7.83,0,0,1,563,146.46a53.15,53.15,0,0,1,4.15,11.68A7.83,7.83,0,0,1,559.11,167.7Z" transform="translate(-431.46 -136.64)"/><path class="cls-1" d="M827.93,314.14a10,10,0,0,1,10.29,10c.1,5.31-4.8,10.27-10.17,10.28a10.07,10.07,0,0,1-10.15-10.13A9.9,9.9,0,0,1,827.93,314.14Z" transform="translate(-431.46 -136.64)"/><path class="cls-1" d="M530.27,324.3c0,5.25-5.11,10.26-10.35,10.15a10.49,10.49,0,0,1-10-10.4,10.2,10.2,0,0,1,10.26-10A10.38,10.38,0,0,1,530.27,324.3Z" transform="translate(-431.46 -136.64)"/></svg>